# xmcd
# 
# Track frame offsets:
#     150
#     30669
#     51222
#     91479
#     105312
#     149190
#     155032
#     189752
# 
# Disc length: 2988
# 
# Revision: 1
# Processed by: cddbd v1.5.2PL0 Copyright (c) Steve Scherf et al.
# Submitted via: BonkEnc v1.0.8
# 
DISCID=680baa08
DTITLE=Joe Chindamo - Reflected Journey
DYEAR=1997
DGENRE=Contemporary Jazz
TTITLE0=One World
TTITLE1=Fiddle Faddle
TTITLE2=The Goth
TTITLE3=Someplace Else
TTITLE4=Reflected Journey
TTITLE5=Letter To Cerny
TTITLE6=In A Space
TTITLE7=The Gift
EXTD=YEAR: 1997
EXTT0=
EXTT1=
EXTT2=
EXTT3=
EXTT4=
EXTT5=
EXTT6=
EXTT7=
PLAYORDER=
